<svg width="816" height="353" viewBox="0 0 816 353" fill="none" xmlns="http://www.w3.org/2000/svg">
<g filter="url(#filter0_b_2040_11603)">
<path d="M169.512 325.112L168.087 323.687L20.8875 176.512L22.3125 175.087L169.512 27.8875L170.937 29.3125L318.112 176.487L316.687 177.912L169.512 325.112ZM26.6125 176.512L169.512 319.412L312.412 176.512L169.512 33.6125L26.6125 176.512Z" fill="url(#paint0_linear_2040_11603)"/>
<path d="M169.512 264.537C120.962 264.537 81.4873 225.037 81.4873 176.512C81.4873 127.962 120.987 88.4874 169.512 88.4874C218.037 88.4874 257.537 127.987 257.537 176.512C257.537 225.037 218.037 264.537 169.512 264.537ZM169.512 92.7874C123.362 92.7874 85.8123 130.337 85.8123 176.487C85.8123 222.637 123.362 260.187 169.512 260.187C215.662 260.187 253.212 222.637 253.212 176.487C253.212 130.337 215.662 92.7874 169.512 92.7874Z" fill="url(#paint1_linear_2040_11603)"/>
<path d="M122.663 192.162C121.838 192.862 121.088 193.462 120.438 194.012C119.788 194.562 118.913 195.137 117.813 195.662C116.738 196.187 115.688 196.587 114.663 196.837C113.638 197.087 112.213 197.237 110.388 197.237C106.963 197.237 104.138 196.087 101.888 193.787C99.6377 191.487 98.5127 188.587 98.5127 185.112C98.5127 182.237 99.0877 179.912 100.238 178.137C101.388 176.362 103.038 174.962 105.188 173.937C107.363 172.887 109.963 172.162 112.988 171.737C116.013 171.337 119.263 171.012 122.763 170.762V170.562C122.763 168.437 121.963 166.962 120.413 166.137C118.838 165.312 116.488 164.912 113.338 164.912C111.913 164.912 110.263 165.162 108.363 165.687C106.463 166.212 104.613 166.862 102.788 167.687H101.763V158.312C102.963 157.962 104.888 157.562 107.563 157.087C110.238 156.612 112.913 156.387 115.638 156.387C122.313 156.387 127.163 157.512 130.213 159.712C133.263 161.937 134.788 165.312 134.788 169.862V196.237H122.713V192.162H122.663ZM122.663 186.137V178.112C120.638 178.312 118.988 178.487 117.738 178.637C116.488 178.787 115.238 179.087 114.038 179.512C112.988 179.887 112.163 180.437 111.588 181.187C111.013 181.912 110.713 182.912 110.713 184.137C110.713 185.937 111.213 187.187 112.163 187.862C113.138 188.537 114.563 188.862 116.463 188.862C117.513 188.862 118.563 188.637 119.663 188.162C120.788 187.687 121.788 186.987 122.663 186.137Z" fill="url(#paint2_linear_2040_11603)"/>
<path d="M161.262 197.262C158.062 197.262 155.137 196.862 152.462 196.062C149.812 195.262 147.487 194.012 145.537 192.337C143.612 190.662 142.087 188.562 141.012 186.037C139.937 183.487 139.387 180.512 139.387 177.062C139.387 173.362 139.962 170.212 141.162 167.612C142.337 165.012 143.912 162.887 145.937 161.212C147.862 159.612 150.137 158.412 152.762 157.662C155.387 156.887 158.112 156.512 160.937 156.512C163.087 156.512 165.212 156.762 167.362 157.262C169.512 157.737 171.662 158.537 173.812 159.612V169.987H172.262C171.787 169.537 171.187 169.012 170.487 168.462C169.787 167.912 169.012 167.387 168.187 166.937C167.312 166.462 166.312 166.037 165.212 165.712C164.112 165.387 162.862 165.212 161.512 165.212C158.412 165.212 156.037 166.287 154.337 168.437C152.637 170.587 151.787 173.462 151.787 177.087C151.787 180.962 152.687 183.862 154.487 185.762C156.287 187.662 158.687 188.612 161.687 188.612C163.212 188.612 164.537 188.437 165.687 188.087C166.837 187.762 167.837 187.337 168.662 186.862C169.462 186.387 170.162 185.887 170.737 185.362C171.312 184.862 171.812 184.387 172.212 183.987H173.762V194.312C173.062 194.612 172.262 194.962 171.362 195.337C170.462 195.712 169.537 196.037 168.587 196.287C167.412 196.612 166.312 196.862 165.287 197.012C164.312 197.162 162.937 197.262 161.262 197.262Z" fill="url(#paint3_linear_2040_11603)"/>
<path d="M226.487 196.262V176.887C226.487 174.987 226.437 173.362 226.387 172.062C226.312 170.762 226.112 169.687 225.762 168.862C225.412 168.037 224.887 167.437 224.137 167.062C223.412 166.687 222.387 166.487 221.062 166.487C220.137 166.487 219.237 166.687 218.337 167.087C217.437 167.487 216.437 168.062 215.387 168.812V196.287H203.312V176.887C203.312 175.012 203.262 173.412 203.187 172.062C203.112 170.737 202.887 169.662 202.537 168.837C202.187 168.012 201.662 167.412 200.912 167.037C200.187 166.662 199.162 166.462 197.887 166.462C196.887 166.462 195.937 166.687 194.987 167.162C194.037 167.637 193.112 168.162 192.212 168.787V196.262H180.137V157.537H192.212V161.812C194.187 160.137 196.037 158.812 197.787 157.887C199.537 156.937 201.487 156.462 203.687 156.462C206.062 156.462 208.137 157.037 209.937 158.162C211.737 159.287 213.112 160.962 214.037 163.187C216.362 161.037 218.562 159.362 220.612 158.212C222.662 157.062 224.762 156.462 226.862 156.462C228.662 156.462 230.262 156.762 231.687 157.337C233.112 157.912 234.312 158.762 235.312 159.912C236.387 161.162 237.212 162.637 237.737 164.337C238.287 166.037 238.562 168.287 238.562 171.037V196.237H226.487V196.262Z" fill="url(#paint4_linear_2040_11603)"/>
<path d="M360.463 121.737L357.713 130.762H351.713L361.913 98.9124H369.338L379.688 130.762H373.438L370.563 121.737H360.463ZM369.588 117.337L367.088 109.487C366.463 107.562 365.963 105.387 365.488 103.537H365.388C364.913 105.387 364.438 107.612 363.888 109.487L361.438 117.337H369.588Z" fill="url(#paint5_linear_2040_11603)"/>
<path d="M382.763 125.362C384.038 126.162 386.538 127.062 388.613 127.062C391.163 127.062 392.313 125.987 392.313 124.462C392.313 122.912 391.363 122.137 388.538 121.112C384.038 119.612 382.213 117.137 382.213 114.412C382.213 110.337 385.563 107.237 390.913 107.237C393.463 107.237 395.688 107.862 397.063 108.612L395.888 112.687C394.938 112.112 393.063 111.362 391.013 111.362C388.938 111.362 387.788 112.412 387.788 113.812C387.788 115.287 388.863 115.937 391.813 117.037C396.013 118.512 397.913 120.637 397.963 124.037C397.963 128.237 394.713 131.262 388.613 131.262C385.813 131.262 383.313 130.612 381.613 129.662L382.763 125.362Z" fill="url(#paint6_linear_2040_11603)"/>
<path d="M401.762 125.362C403.037 126.162 405.537 127.062 407.612 127.062C410.162 127.062 411.312 125.987 411.312 124.462C411.312 122.912 410.362 122.137 407.537 121.112C403.037 119.612 401.212 117.137 401.212 114.412C401.212 110.337 404.562 107.237 409.912 107.237C412.462 107.237 414.687 107.862 416.062 108.612L414.887 112.687C413.937 112.112 412.062 111.362 410.012 111.362C407.937 111.362 406.787 112.412 406.787 113.812C406.787 115.287 407.862 115.937 410.812 117.037C415.012 118.512 416.912 120.637 416.962 124.037C416.962 128.237 413.712 131.262 407.612 131.262C404.812 131.262 402.312 130.612 400.612 129.662L401.762 125.362Z" fill="url(#paint7_linear_2040_11603)"/>
<path d="M431.062 131.287C424.587 131.287 419.537 126.837 419.537 119.437C419.537 111.887 424.487 107.237 431.437 107.237C438.287 107.237 442.887 112.062 442.887 119.062C442.887 127.512 436.937 131.312 431.112 131.312H431.062V131.287ZM431.237 127.062C434.537 127.062 436.862 123.837 436.862 119.162C436.862 115.562 435.262 111.412 431.287 111.412C427.187 111.412 425.512 115.437 425.512 119.262C425.512 123.712 427.737 127.062 431.187 127.062H431.237Z" fill="url(#paint8_linear_2040_11603)"/>
<path d="M463.863 130.037C462.638 130.612 460.238 131.212 457.338 131.212C450.163 131.212 445.488 126.587 445.488 119.437C445.488 112.537 450.213 107.187 458.288 107.187C460.413 107.187 462.588 107.662 463.913 108.237L462.863 112.637C461.913 112.162 460.538 111.737 458.463 111.737C454.013 111.737 451.388 114.987 451.413 119.212C451.413 123.937 454.488 126.637 458.463 126.637C460.438 126.637 461.913 126.212 463.038 125.737L463.863 130.037Z" fill="url(#paint9_linear_2040_11603)"/>
<path d="M470.337 104.437C468.387 104.437 467.112 103.012 467.112 101.312C467.112 99.5125 468.437 98.1375 470.362 98.1375C472.337 98.1375 473.587 99.5125 473.612 101.312C473.612 103.012 472.337 104.437 470.362 104.437H470.337ZM467.437 130.762V107.737H473.262V130.762H467.437Z" fill="url(#paint10_linear_2040_11603)"/>
<path d="M496.687 125.237C496.687 127.312 496.787 129.337 497.062 130.762H491.812L491.387 128.212H491.237C489.862 130.012 487.462 131.287 484.437 131.287C479.812 131.287 477.212 127.937 477.212 124.437C477.212 118.662 482.362 115.687 490.862 115.737V115.362C490.862 113.862 490.262 111.337 486.187 111.337C483.912 111.337 481.562 112.037 479.987 113.037L478.862 109.262C480.562 108.212 483.537 107.237 487.187 107.237C494.562 107.237 496.687 111.912 496.687 116.962V125.237ZM491.037 119.512C486.937 119.462 483.012 120.312 483.012 123.812C483.012 126.087 484.487 127.112 486.312 127.112C488.662 127.112 490.337 125.587 490.887 123.937C491.037 123.512 491.037 123.087 491.037 122.662V119.512Z" fill="url(#paint11_linear_2040_11603)"/>
<path d="M508.513 101.838V107.738H514.037V112.088H508.513V122.213C508.513 125.038 509.263 126.463 511.488 126.463C512.538 126.463 513.087 126.413 513.762 126.238L513.863 130.638C513.013 130.963 511.462 131.263 509.662 131.263C507.487 131.263 505.737 130.563 504.662 129.363C503.387 128.038 502.813 125.913 502.813 122.888V112.113H499.562V107.763H502.813V103.463L508.513 101.838Z" fill="url(#paint12_linear_2040_11603)"/>
<path d="M520.613 104.437C518.663 104.437 517.388 103.012 517.388 101.312C517.388 99.5125 518.713 98.1375 520.638 98.1375C522.613 98.1375 523.863 99.5125 523.888 101.312C523.888 103.012 522.613 104.437 520.638 104.437H520.613ZM517.713 130.762V107.737H523.538V130.762H517.713Z" fill="url(#paint13_linear_2040_11603)"/>
<path d="M539.187 131.287C532.712 131.287 527.662 126.837 527.662 119.437C527.662 111.887 532.612 107.237 539.562 107.237C546.412 107.237 551.012 112.062 551.012 119.062C551.012 127.512 545.062 131.312 539.237 131.312H539.187V131.287ZM539.362 127.062C542.662 127.062 544.987 123.837 544.987 119.162C544.987 115.562 543.387 111.412 539.412 111.412C535.312 111.412 533.637 115.437 533.637 119.262C533.637 123.712 535.862 127.062 539.312 127.062H539.362Z" fill="url(#paint14_linear_2040_11603)"/>
<path d="M555.063 114.587C555.063 111.937 554.963 109.712 554.863 107.737H559.913L560.188 111.187H560.338C561.388 109.387 563.888 107.212 567.713 107.212C571.738 107.212 575.888 109.812 575.888 117.087V130.737H570.063V117.737C570.063 114.437 568.838 111.912 565.663 111.912C563.338 111.912 561.738 113.562 561.138 115.312C560.938 115.787 560.863 116.487 560.863 117.162V130.712H555.038V114.587H555.063Z" fill="url(#paint15_linear_2040_11603)"/>
<path d="M591.113 130.762V112.087H587.988V107.737H591.113V106.737C591.113 103.762 591.913 100.787 593.913 98.8875C595.613 97.2875 597.938 96.6625 599.913 96.6625C601.463 96.6625 602.713 96.9375 603.588 97.2375L603.213 101.737C602.538 101.512 601.788 101.312 600.713 101.312C597.838 101.312 596.888 103.712 596.888 106.562V107.737H601.938V112.087H596.938V130.762H591.113Z" fill="url(#paint16_linear_2040_11603)"/>
<path d="M614.362 131.287C607.887 131.287 602.837 126.837 602.837 119.437C602.837 111.887 607.787 107.237 614.737 107.237C621.587 107.237 626.187 112.062 626.187 119.062C626.187 127.512 620.237 131.312 614.412 131.312H614.362V131.287ZM614.537 127.062C617.837 127.062 620.162 123.837 620.162 119.162C620.162 115.562 618.562 111.412 614.587 111.412C610.487 111.412 608.812 115.437 608.812 119.262C608.812 123.712 611.037 127.062 614.487 127.062H614.537Z" fill="url(#paint17_linear_2040_11603)"/>
<path d="M630.237 115.162C630.237 112.037 630.187 109.787 630.037 107.737H635.037L635.287 112.087H635.437C636.562 108.862 639.262 107.212 641.762 107.212C642.337 107.212 642.662 107.262 643.137 107.362V112.787C642.612 112.687 642.087 112.637 641.387 112.637C638.637 112.637 636.712 114.387 636.187 117.037C636.087 117.562 636.037 118.162 636.037 118.787V130.737H630.212V115.162H630.237Z" fill="url(#paint18_linear_2040_11603)"/>
<path d="M376.913 182.312C375.538 182.962 372.513 183.737 368.638 183.737C358.538 183.737 352.388 177.412 352.388 167.712C352.388 157.212 359.713 150.937 369.438 150.937C373.263 150.937 375.963 151.687 377.138 152.312L375.913 156.937C374.388 156.262 372.263 155.712 369.663 155.712C363.188 155.712 358.513 159.762 358.513 167.437C358.513 174.437 362.588 178.862 369.613 178.862C371.938 178.862 374.388 178.387 375.938 177.737L376.913 182.312Z" fill="url(#paint19_linear_2040_11603)"/>
<path d="M390.237 183.787C383.762 183.787 378.712 179.337 378.712 171.937C378.712 164.387 383.662 159.737 390.612 159.737C397.462 159.737 402.062 164.562 402.062 171.562C402.062 180.012 396.112 183.812 390.287 183.812H390.237V183.787ZM390.437 179.587C393.737 179.587 396.062 176.362 396.062 171.687C396.062 168.087 394.462 163.937 390.487 163.937C386.387 163.937 384.712 167.962 384.712 171.787C384.712 176.237 386.937 179.587 390.387 179.587H390.437Z" fill="url(#paint20_linear_2040_11603)"/>
<path d="M406.113 167.112C406.113 164.462 406.013 162.237 405.913 160.262H410.888L411.163 163.662H411.313C412.388 161.862 414.488 159.737 418.413 159.737C421.438 159.737 423.788 161.437 424.788 163.987H424.888C425.688 162.712 426.638 161.762 427.688 161.112C429.013 160.212 430.488 159.737 432.413 159.737C436.188 159.737 440.063 162.337 440.063 169.712V183.262H434.388V170.537C434.388 166.712 433.063 164.437 430.288 164.437C428.313 164.437 426.838 165.862 426.238 167.512C426.038 168.037 425.963 168.787 425.963 169.437V183.237H420.288V169.912C420.288 166.687 419.013 164.437 416.313 164.437C414.138 164.437 412.663 166.137 412.113 167.687C411.913 168.312 411.838 168.962 411.838 169.637V183.237H406.163V167.112H406.113Z" fill="url(#paint21_linear_2040_11603)"/>
<path d="M445.462 167.912C445.462 164.887 445.362 162.437 445.262 160.262H450.362L450.637 163.812H450.737C452.437 161.212 455.137 159.737 458.637 159.737C463.937 159.737 468.337 164.262 468.337 171.462C468.337 179.787 463.087 183.787 457.837 183.787C454.962 183.787 452.537 182.562 451.362 180.712H451.262V192.612H445.437V167.912H445.462ZM451.287 173.612C451.287 174.187 451.337 174.687 451.437 175.212C452.062 177.562 454.087 179.287 456.587 179.287C460.262 179.287 462.437 176.212 462.437 171.687C462.437 167.612 460.462 164.312 456.712 164.312C454.312 164.312 452.087 166.062 451.462 168.612C451.362 169.087 451.262 169.612 451.262 170.087V173.612H451.287Z" fill="url(#paint22_linear_2040_11603)"/>
<path d="M493.013 176.362C493.013 179.112 493.113 181.362 493.213 183.262H488.163L487.888 179.812H487.738C486.738 181.412 484.488 183.787 480.313 183.787C476.163 183.787 472.338 181.287 472.338 173.762V160.237H478.138V172.762C478.138 176.587 479.363 179.037 482.438 179.037C484.788 179.037 486.313 177.437 486.888 175.912C487.113 175.437 487.213 174.787 487.213 174.112V160.212H493.038V176.362H493.013Z" fill="url(#paint23_linear_2040_11603)"/>
<path d="M505.262 154.338V160.238H510.787V164.588H505.262V174.688C505.262 177.513 506.012 178.938 508.237 178.938C509.287 178.938 509.837 178.888 510.512 178.713L510.612 183.113C509.762 183.438 508.212 183.713 506.412 183.713C504.237 183.713 502.487 183.013 501.412 181.813C500.137 180.488 499.562 178.363 499.562 175.338V164.563H496.312V160.213H499.562V155.913L505.262 154.338Z" fill="url(#paint24_linear_2040_11603)"/>
<path d="M517.363 156.937C515.413 156.937 514.138 155.512 514.138 153.812C514.138 152.012 515.463 150.637 517.388 150.637C519.363 150.637 520.613 152.012 520.638 153.812C520.638 155.512 519.363 156.937 517.388 156.937H517.363ZM514.463 183.262V160.262H520.288V183.262H514.463Z" fill="url(#paint25_linear_2040_11603)"/>
<path d="M525.862 167.112C525.862 164.462 525.762 162.237 525.662 160.262H530.712L530.987 163.712H531.137C532.187 161.912 534.687 159.737 538.512 159.737C542.537 159.737 546.687 162.337 546.687 169.612V183.262H540.887V170.262C540.887 166.962 539.662 164.462 536.487 164.462C534.162 164.462 532.562 166.112 531.962 167.862C531.762 168.337 531.687 169.037 531.687 169.712V183.262H525.862V167.112Z" fill="url(#paint26_linear_2040_11603)"/>
<path d="M573.012 179.912C573.012 184.737 572.012 188.187 569.612 190.362C567.262 192.487 563.887 193.137 560.737 193.137C557.812 193.137 554.687 192.487 552.712 191.287L553.987 186.887C555.462 187.737 557.912 188.637 560.687 188.637C564.462 188.637 567.312 186.662 567.312 181.687V179.712H567.212C565.887 181.737 563.587 183.112 560.512 183.112C554.787 183.112 550.737 178.387 550.737 171.862C550.737 164.312 555.662 159.712 561.187 159.712C564.737 159.712 566.762 161.412 567.837 163.312H567.937L568.162 160.237H573.212C573.112 161.787 573.012 163.687 573.012 166.862V179.912ZM567.187 169.462C567.187 168.887 567.137 168.387 566.987 167.912C566.362 165.787 564.712 164.187 562.262 164.187C559.012 164.187 556.587 167.012 556.587 171.712C556.587 175.637 558.562 178.812 562.212 178.812C564.387 178.812 566.287 177.387 566.937 175.262C567.137 174.687 567.162 173.887 567.162 173.237V169.462H567.187Z" fill="url(#paint27_linear_2040_11603)"/>
<path d="M614.737 170.262C614.537 166.162 614.312 161.237 614.362 156.887H614.212C613.162 160.762 611.862 165.062 610.437 169.087L605.762 182.887H601.312L597.062 169.287C595.837 165.212 594.712 160.887 593.837 156.912H593.737C593.587 161.062 593.412 166.137 593.162 170.487L592.462 183.287H587.037L589.162 151.437H596.812L600.962 164.237C602.087 167.962 603.087 171.762 603.887 175.287H604.037C604.887 171.837 605.987 167.912 607.212 164.187L611.612 151.437H619.162L621.012 183.287H615.337L614.737 170.262Z" fill="url(#paint28_linear_2040_11603)"/>
<path d="M644.037 177.737C644.037 179.812 644.138 181.837 644.413 183.262H639.162L638.737 180.712H638.588C637.213 182.512 634.812 183.787 631.787 183.787C627.162 183.787 624.562 180.437 624.562 176.937C624.562 171.162 629.712 168.187 638.212 168.237V167.862C638.212 166.362 637.612 163.837 633.537 163.837C631.262 163.837 628.913 164.537 627.338 165.537L626.213 161.762C627.913 160.712 630.888 159.737 634.538 159.737C641.913 159.737 644.037 164.412 644.037 169.462V177.737ZM638.363 172.012C634.263 171.962 630.337 172.812 630.337 176.312C630.337 178.587 631.813 179.612 633.638 179.612C635.988 179.612 637.662 178.087 638.212 176.437C638.362 176.012 638.363 175.587 638.363 175.162V172.012Z" fill="url(#paint29_linear_2040_11603)"/>
<path d="M666.388 182.562C665.163 183.137 662.763 183.737 659.863 183.737C652.688 183.737 648.013 179.112 648.013 171.962C648.013 165.062 652.738 159.712 660.813 159.712C662.938 159.712 665.113 160.187 666.438 160.762L665.388 165.162C664.438 164.687 663.063 164.262 660.988 164.262C656.538 164.262 653.913 167.512 653.938 171.737C653.938 176.462 657.013 179.162 660.988 179.162C662.963 179.162 664.438 178.737 665.563 178.262L666.388 182.562Z" fill="url(#paint30_linear_2040_11603)"/>
<path d="M669.987 149.662H675.812V163.362H675.887C676.587 162.287 677.587 161.387 678.762 160.762C679.937 160.087 681.312 159.712 682.787 159.712C686.712 159.712 690.812 162.312 690.812 169.687V183.237H684.987V170.287C684.987 166.987 683.762 164.437 680.537 164.437C678.262 164.437 676.662 165.937 676.012 167.687C675.812 168.212 675.787 168.812 675.787 169.437V183.237H669.962V149.662H669.987Z" fill="url(#paint31_linear_2040_11603)"/>
<path d="M699.187 156.937C697.237 156.937 695.962 155.512 695.962 153.812C695.962 152.012 697.287 150.637 699.212 150.637C701.187 150.637 702.437 152.012 702.462 153.812C702.462 155.512 701.187 156.937 699.212 156.937H699.187ZM696.287 183.262V160.262H702.112V183.262H696.287Z" fill="url(#paint32_linear_2040_11603)"/>
<path d="M707.688 167.112C707.688 164.462 707.588 162.237 707.488 160.262H712.538L712.813 163.712H712.963C714.013 161.912 716.513 159.737 720.338 159.737C724.363 159.737 728.513 162.337 728.513 169.612V183.262H722.688V170.262C722.688 166.962 721.463 164.462 718.288 164.462C715.963 164.462 714.363 166.112 713.763 167.862C713.563 168.337 713.488 169.037 713.488 169.712V183.262H707.663V167.112H707.688Z" fill="url(#paint33_linear_2040_11603)"/>
<path d="M738.112 173.387C738.262 177.537 741.512 179.337 745.212 179.337C747.912 179.337 749.787 178.912 751.587 178.287L752.437 182.262C750.462 183.112 747.712 183.737 744.412 183.737C736.937 183.737 732.562 179.162 732.562 172.112C732.562 165.737 736.437 159.737 743.812 159.737C751.287 159.737 753.737 165.887 753.737 170.937C753.737 172.012 753.637 172.887 753.537 173.387H738.112ZM748.237 169.312C748.287 167.187 747.337 163.687 743.462 163.687C739.862 163.687 738.362 166.937 738.112 169.312H748.237Z" fill="url(#paint34_linear_2040_11603)"/>
<path d="M757.688 167.662C757.688 164.537 757.638 162.287 757.488 160.237H762.488L762.738 164.587H762.888C764.013 161.362 766.713 159.712 769.213 159.712C769.788 159.712 770.113 159.762 770.588 159.862V165.287C770.063 165.187 769.538 165.137 768.838 165.137C766.088 165.137 764.163 166.887 763.638 169.537C763.538 170.062 763.488 170.662 763.488 171.287V183.237H757.663V167.662H757.688Z" fill="url(#paint35_linear_2040_11603)"/>
<path d="M778.512 160.262L782.612 172.587C783.087 174.012 783.612 175.762 783.937 177.037H784.087C784.412 175.762 784.837 174.012 785.312 172.537L788.912 160.262H795.112L789.337 175.937C786.162 184.537 784.037 188.362 781.362 190.737C779.037 192.712 776.687 193.487 775.262 193.662L773.937 188.787C774.937 188.562 776.112 188.037 777.287 187.187C778.362 186.487 779.687 185.112 780.512 183.562C780.712 183.137 780.837 182.812 780.837 182.512C780.837 182.287 780.787 181.937 780.562 181.387L772.112 160.262H778.512Z" fill="url(#paint36_linear_2040_11603)"/>
<path d="M359.062 248.312L350.162 221.037H353.962L358.212 234.487C359.387 238.162 360.412 241.487 361.137 244.687H361.212C361.987 241.537 363.112 238.087 364.337 234.537L368.962 221.062H372.737L362.987 248.337H359.062V248.312Z" fill="url(#paint37_linear_2040_11603)"/>
<path d="M379.187 221.012V248.287H375.662V221.012H379.187Z" fill="url(#paint38_linear_2040_11603)"/>
<path d="M390.538 224.012H382.238V221.012H402.438V224.012H394.088V248.312H390.513V224.012H390.538Z" fill="url(#paint39_linear_2040_11603)"/>
<path d="M422.187 244.013C423.762 244.988 426.062 245.788 428.512 245.788C432.112 245.788 434.212 243.888 434.212 241.138C434.212 238.588 432.762 237.138 429.062 235.713C424.612 234.138 421.862 231.838 421.862 227.988C421.862 223.738 425.387 220.588 430.687 220.588C433.487 220.588 435.512 221.238 436.712 221.913L435.737 224.788C434.837 224.288 433.037 223.488 430.562 223.488C426.837 223.488 425.412 225.713 425.412 227.563C425.412 230.113 427.062 231.363 430.837 232.838C435.462 234.613 437.787 236.838 437.787 240.863C437.787 245.088 434.662 248.713 428.237 248.713C425.612 248.713 422.737 247.938 421.287 246.963L422.187 244.013Z" fill="url(#paint40_linear_2040_11603)"/>
<path d="M446.687 223.088V228.713H451.787V231.438H446.687V242.013C446.687 244.438 447.362 245.813 449.362 245.813C450.287 245.813 450.987 245.688 451.437 245.563L451.612 248.238C450.912 248.513 449.837 248.713 448.462 248.713C446.812 248.713 445.462 248.188 444.612 247.213C443.612 246.163 443.237 244.413 443.237 242.113V231.438H440.212V228.713H443.237V224.013L446.687 223.088Z" fill="url(#paint41_linear_2040_11603)"/>
<path d="M472.187 242.963C472.187 244.988 472.237 246.763 472.362 248.313H469.212L469.012 245.113H468.937C468.012 246.688 465.937 248.763 462.462 248.763C459.387 248.763 455.712 247.063 455.712 240.188V228.738H459.262V239.588C459.262 243.313 460.387 245.813 463.637 245.813C466.037 245.813 467.687 244.163 468.337 242.563C468.537 242.038 468.662 241.388 468.662 240.738V228.713H472.212V242.963H472.187Z" fill="url(#paint42_linear_2040_11603)"/>
<path d="M495.037 219.562V243.237C495.037 244.987 495.087 246.962 495.187 248.287H491.987L491.837 244.887H491.762C490.662 247.062 488.287 248.737 485.087 248.737C480.362 248.737 476.712 244.737 476.712 238.787C476.662 232.262 480.712 228.262 485.487 228.262C488.487 228.262 490.512 229.687 491.412 231.262H491.487V219.562H495.037ZM491.462 236.687C491.462 236.237 491.412 235.637 491.312 235.187C490.787 232.912 488.837 231.062 486.162 231.062C482.487 231.062 480.287 234.312 480.287 238.637C480.287 242.612 482.237 245.887 486.087 245.887C488.487 245.887 490.662 244.312 491.312 241.637C491.437 241.137 491.462 240.662 491.462 240.087V236.687Z" fill="url(#paint43_linear_2040_11603)"/>
<path d="M502.937 239.163C503.012 243.988 506.087 245.963 509.662 245.963C512.212 245.963 513.737 245.513 515.087 244.963L515.687 247.513C514.437 248.088 512.287 248.738 509.162 248.738C503.137 248.738 499.537 244.763 499.537 238.863C499.537 232.963 503.012 228.288 508.737 228.288C515.137 228.288 516.837 233.913 516.837 237.513C516.837 238.238 516.762 238.813 516.712 239.163H502.937ZM513.387 236.613C513.437 234.338 512.462 230.813 508.437 230.813C504.837 230.813 503.262 234.138 502.962 236.613H513.387Z" fill="url(#paint44_linear_2040_11603)"/>
<path d="M521.237 234.013C521.237 231.988 521.188 230.338 521.062 228.713H524.212L524.412 231.963H524.487C525.462 230.113 527.737 228.288 530.962 228.288C533.662 228.288 537.887 229.913 537.887 236.638V248.338H534.312V237.038C534.312 233.888 533.137 231.238 529.787 231.238C527.437 231.238 525.612 232.888 525.012 234.888C524.862 235.338 524.762 235.938 524.762 236.538V248.313H521.212V234.013H521.237Z" fill="url(#paint45_linear_2040_11603)"/>
<path d="M547.862 223.088V228.713H552.962V231.438H547.862V242.013C547.862 244.438 548.562 245.813 550.537 245.813C551.462 245.813 552.162 245.688 552.612 245.563L552.762 248.238C552.087 248.513 550.987 248.713 549.612 248.713C547.962 248.713 546.612 248.188 545.762 247.213C544.737 246.163 544.387 244.413 544.387 242.113V231.438H541.362V228.713H544.387V224.013L547.862 223.088Z" fill="url(#paint46_linear_2040_11603)"/>
<path d="M584.737 247.413C583.437 248.063 580.862 248.713 577.537 248.713C569.837 248.713 564.062 243.863 564.062 234.913C564.062 226.363 569.862 220.588 578.312 220.588C581.712 220.588 583.862 221.313 584.787 221.813L583.937 224.688C582.612 224.038 580.712 223.563 578.438 223.563C572.038 223.563 567.787 227.663 567.787 234.813C567.787 241.488 571.637 245.788 578.262 245.788C580.412 245.788 582.587 245.338 584.012 244.663L584.737 247.413Z" fill="url(#paint47_linear_2040_11603)"/>
<path d="M589.038 219.562H592.588V231.787H592.663C593.238 230.787 594.113 229.887 595.213 229.287C596.263 228.687 597.513 228.287 598.863 228.287C601.488 228.287 605.713 229.912 605.713 236.662V248.312H602.138V237.062C602.138 233.912 600.963 231.237 597.613 231.237C595.313 231.237 593.488 232.862 592.838 234.787C592.638 235.287 592.588 235.787 592.588 236.487V248.312H589.038V219.562Z" fill="url(#paint48_linear_2040_11603)"/>
<path d="M622.387 248.313L622.112 245.838H621.987C620.887 247.388 618.787 248.763 615.987 248.763C612.012 248.763 609.987 245.963 609.987 243.138C609.987 238.413 614.187 235.813 621.762 235.863V235.463C621.762 233.838 621.312 230.938 617.312 230.938C615.487 230.938 613.587 231.513 612.212 232.388L611.412 230.038C613.037 228.988 615.387 228.288 617.862 228.288C623.862 228.288 625.312 232.363 625.312 236.313V243.638C625.312 245.338 625.387 246.988 625.637 248.338H622.387V248.313ZM621.862 238.313C617.987 238.238 613.562 238.913 613.562 242.713C613.562 245.013 615.087 246.113 616.912 246.113C619.462 246.113 621.087 244.488 621.637 242.838C621.762 242.463 621.837 242.063 621.837 241.713V238.313H621.862Z" fill="url(#paint49_linear_2040_11603)"/>
<path d="M631.037 235.112C631.037 232.612 630.962 230.587 630.887 228.712H634.087L634.237 232.062H634.312C635.762 229.687 638.087 228.262 641.262 228.262C645.987 228.262 649.562 232.262 649.562 238.212C649.562 245.262 645.262 248.737 640.662 248.737C638.062 248.737 635.812 247.612 634.637 245.662H634.562V256.312H631.037V235.112ZM634.562 240.337C634.562 240.862 634.637 241.337 634.712 241.787C635.362 244.262 637.512 245.962 640.062 245.962C643.837 245.962 646.012 242.887 646.012 238.387C646.012 234.462 643.937 231.112 640.187 231.112C637.762 231.112 635.487 232.862 634.812 235.512C634.687 235.962 634.562 236.487 634.562 236.962V240.337Z" fill="url(#paint50_linear_2040_11603)"/>
<path d="M658.387 223.088V228.713H663.487V231.438H658.387V242.013C658.387 244.438 659.062 245.813 661.062 245.813C661.987 245.813 662.687 245.688 663.137 245.563L663.287 248.238C662.587 248.513 661.512 248.713 660.137 248.713C658.487 248.713 657.137 248.188 656.287 247.213C655.287 246.163 654.912 244.413 654.912 242.113V231.438H651.862V228.713H654.912V224.013L658.387 223.088Z" fill="url(#paint51_linear_2040_11603)"/>
<path d="M669.237 239.163C669.312 243.988 672.387 245.963 675.962 245.963C678.512 245.963 680.062 245.513 681.387 244.963L681.987 247.513C680.737 248.088 678.587 248.738 675.462 248.738C669.437 248.738 665.837 244.763 665.837 238.863C665.837 232.963 669.312 228.288 675.037 228.288C681.437 228.288 683.137 233.913 683.137 237.513C683.137 238.238 683.062 238.813 683.012 239.163H669.237ZM679.687 236.613C679.737 234.338 678.762 230.813 674.737 230.813C671.137 230.813 669.562 234.138 669.262 236.613H679.687Z" fill="url(#paint52_linear_2040_11603)"/>
<path d="M687.562 234.837C687.562 232.537 687.512 230.537 687.412 228.712H690.537L690.662 232.562H690.812C691.712 229.937 693.862 228.262 696.237 228.262C696.637 228.262 696.937 228.312 697.237 228.387V231.737C696.862 231.662 696.512 231.612 696.012 231.612C693.512 231.612 691.712 233.512 691.237 236.187C691.162 236.687 691.062 237.237 691.062 237.837V248.287H687.537V234.837H687.562Z" fill="url(#paint53_linear_2040_11603)"/>
</g>
<defs>
<filter id="filter0_b_2040_11603" x="-1.6" y="-1.6" width="819.2" height="356.2" filterUnits="userSpaceOnUse" color-interpolation-filters="sRGB">
<feFlood flood-opacity="0" result="BackgroundImageFix"/>
<feGaussianBlur in="BackgroundImageFix" stdDeviation="0.8"/>
<feComposite in2="SourceAlpha" operator="in" result="effect1_backgroundBlur_2040_11603"/>
<feBlend mode="normal" in="SourceGraphic" in2="effect1_backgroundBlur_2040_11603" result="shape"/>
</filter>
<linearGradient id="paint0_linear_2040_11603" x1="318.112" y1="27.8875" x2="20.8875" y2="325.112" gradientUnits="userSpaceOnUse">
<stop stop-color="#27BAEC"/>
<stop offset="1" stop-color="#253EE0"/>
</linearGradient>
<linearGradient id="paint1_linear_2040_11603" x1="257.537" y1="88.4874" x2="81.4873" y2="264.537" gradientUnits="userSpaceOnUse">
<stop stop-color="#27BAEC"/>
<stop offset="1" stop-color="#253EE0"/>
</linearGradient>
<linearGradient id="paint2_linear_2040_11603" x1="134.788" y1="156.387" x2="94.2242" y2="192.408" gradientUnits="userSpaceOnUse">
<stop stop-color="#27BAEC"/>
<stop offset="1" stop-color="#253EE0"/>
</linearGradient>
<linearGradient id="paint3_linear_2040_11603" x1="173.812" y1="156.512" x2="133.635" y2="190.453" gradientUnits="userSpaceOnUse">
<stop stop-color="#27BAEC"/>
<stop offset="1" stop-color="#253EE0"/>
</linearGradient>
<linearGradient id="paint4_linear_2040_11603" x1="238.562" y1="156.462" x2="201.493" y2="210.844" gradientUnits="userSpaceOnUse">
<stop stop-color="#27BAEC"/>
<stop offset="1" stop-color="#253EE0"/>
</linearGradient>
<linearGradient id="paint5_linear_2040_11603" x1="379.688" y1="98.9124" x2="348.104" y2="126.654" gradientUnits="userSpaceOnUse">
<stop stop-color="#27BAEC"/>
<stop offset="1" stop-color="#253EE0"/>
</linearGradient>
<linearGradient id="paint6_linear_2040_11603" x1="397.963" y1="107.237" x2="375.613" y2="122.447" gradientUnits="userSpaceOnUse">
<stop stop-color="#27BAEC"/>
<stop offset="1" stop-color="#253EE0"/>
</linearGradient>
<linearGradient id="paint7_linear_2040_11603" x1="416.962" y1="107.237" x2="394.613" y2="122.447" gradientUnits="userSpaceOnUse">
<stop stop-color="#27BAEC"/>
<stop offset="1" stop-color="#253EE0"/>
</linearGradient>
<linearGradient id="paint8_linear_2040_11603" x1="442.887" y1="107.237" x2="418.824" y2="130.577" gradientUnits="userSpaceOnUse">
<stop stop-color="#27BAEC"/>
<stop offset="1" stop-color="#253EE0"/>
</linearGradient>
<linearGradient id="paint9_linear_2040_11603" x1="463.913" y1="107.187" x2="440.71" y2="124.982" gradientUnits="userSpaceOnUse">
<stop stop-color="#27BAEC"/>
<stop offset="1" stop-color="#253EE0"/>
</linearGradient>
<linearGradient id="paint10_linear_2040_11603" x1="473.612" y1="98.1375" x2="461.109" y2="100.629" gradientUnits="userSpaceOnUse">
<stop stop-color="#27BAEC"/>
<stop offset="1" stop-color="#253EE0"/>
</linearGradient>
<linearGradient id="paint11_linear_2040_11603" x1="497.062" y1="107.237" x2="473.449" y2="126.727" gradientUnits="userSpaceOnUse">
<stop stop-color="#27BAEC"/>
<stop offset="1" stop-color="#253EE0"/>
</linearGradient>
<linearGradient id="paint12_linear_2040_11603" x1="514.037" y1="101.838" x2="490.728" y2="113.304" gradientUnits="userSpaceOnUse">
<stop stop-color="#27BAEC"/>
<stop offset="1" stop-color="#253EE0"/>
</linearGradient>
<linearGradient id="paint13_linear_2040_11603" x1="523.888" y1="98.1375" x2="511.384" y2="100.629" gradientUnits="userSpaceOnUse">
<stop stop-color="#27BAEC"/>
<stop offset="1" stop-color="#253EE0"/>
</linearGradient>
<linearGradient id="paint14_linear_2040_11603" x1="551.012" y1="107.237" x2="526.949" y2="130.577" gradientUnits="userSpaceOnUse">
<stop stop-color="#27BAEC"/>
<stop offset="1" stop-color="#253EE0"/>
</linearGradient>
<linearGradient id="paint15_linear_2040_11603" x1="575.888" y1="107.212" x2="552.511" y2="128.105" gradientUnits="userSpaceOnUse">
<stop stop-color="#27BAEC"/>
<stop offset="1" stop-color="#253EE0"/>
</linearGradient>
<linearGradient id="paint16_linear_2040_11603" x1="603.588" y1="96.6625" x2="577.787" y2="108.466" gradientUnits="userSpaceOnUse">
<stop stop-color="#27BAEC"/>
<stop offset="1" stop-color="#253EE0"/>
</linearGradient>
<linearGradient id="paint17_linear_2040_11603" x1="626.187" y1="107.237" x2="602.124" y2="130.577" gradientUnits="userSpaceOnUse">
<stop stop-color="#27BAEC"/>
<stop offset="1" stop-color="#253EE0"/>
</linearGradient>
<linearGradient id="paint18_linear_2040_11603" x1="643.137" y1="107.212" x2="623.138" y2="118.349" gradientUnits="userSpaceOnUse">
<stop stop-color="#27BAEC"/>
<stop offset="1" stop-color="#253EE0"/>
</linearGradient>
<linearGradient id="paint19_linear_2040_11603" x1="377.138" y1="150.937" x2="345.597" y2="174.737" gradientUnits="userSpaceOnUse">
<stop stop-color="#27BAEC"/>
<stop offset="1" stop-color="#253EE0"/>
</linearGradient>
<linearGradient id="paint20_linear_2040_11603" x1="402.062" y1="159.737" x2="377.998" y2="183.077" gradientUnits="userSpaceOnUse">
<stop stop-color="#27BAEC"/>
<stop offset="1" stop-color="#253EE0"/>
</linearGradient>
<linearGradient id="paint21_linear_2040_11603" x1="440.063" y1="159.737" x2="418.082" y2="191.646" gradientUnits="userSpaceOnUse">
<stop stop-color="#27BAEC"/>
<stop offset="1" stop-color="#253EE0"/>
</linearGradient>
<linearGradient id="paint22_linear_2040_11603" x1="468.337" y1="159.737" x2="437.42" y2="181.439" gradientUnits="userSpaceOnUse">
<stop stop-color="#27BAEC"/>
<stop offset="1" stop-color="#253EE0"/>
</linearGradient>
<linearGradient id="paint23_linear_2040_11603" x1="493.213" y1="160.212" x2="469.811" y2="180.934" gradientUnits="userSpaceOnUse">
<stop stop-color="#27BAEC"/>
<stop offset="1" stop-color="#253EE0"/>
</linearGradient>
<linearGradient id="paint24_linear_2040_11603" x1="510.787" y1="154.338" x2="487.493" y2="165.816" gradientUnits="userSpaceOnUse">
<stop stop-color="#27BAEC"/>
<stop offset="1" stop-color="#253EE0"/>
</linearGradient>
<linearGradient id="paint25_linear_2040_11603" x1="520.638" y1="150.637" x2="508.134" y2="153.129" gradientUnits="userSpaceOnUse">
<stop stop-color="#27BAEC"/>
<stop offset="1" stop-color="#253EE0"/>
</linearGradient>
<linearGradient id="paint26_linear_2040_11603" x1="546.687" y1="159.737" x2="523.31" y2="180.63" gradientUnits="userSpaceOnUse">
<stop stop-color="#27BAEC"/>
<stop offset="1" stop-color="#253EE0"/>
</linearGradient>
<linearGradient id="paint27_linear_2040_11603" x1="573.212" y1="159.712" x2="542.258" y2="180.526" gradientUnits="userSpaceOnUse">
<stop stop-color="#27BAEC"/>
<stop offset="1" stop-color="#253EE0"/>
</linearGradient>
<linearGradient id="paint28_linear_2040_11603" x1="621.012" y1="151.437" x2="589.229" y2="185.342" gradientUnits="userSpaceOnUse">
<stop stop-color="#27BAEC"/>
<stop offset="1" stop-color="#253EE0"/>
</linearGradient>
<linearGradient id="paint29_linear_2040_11603" x1="644.413" y1="159.737" x2="620.799" y2="179.227" gradientUnits="userSpaceOnUse">
<stop stop-color="#27BAEC"/>
<stop offset="1" stop-color="#253EE0"/>
</linearGradient>
<linearGradient id="paint30_linear_2040_11603" x1="666.438" y1="159.712" x2="643.235" y2="177.507" gradientUnits="userSpaceOnUse">
<stop stop-color="#27BAEC"/>
<stop offset="1" stop-color="#253EE0"/>
</linearGradient>
<linearGradient id="paint31_linear_2040_11603" x1="690.812" y1="149.662" x2="660.718" y2="168.351" gradientUnits="userSpaceOnUse">
<stop stop-color="#27BAEC"/>
<stop offset="1" stop-color="#253EE0"/>
</linearGradient>
<linearGradient id="paint32_linear_2040_11603" x1="702.462" y1="150.637" x2="689.959" y2="153.129" gradientUnits="userSpaceOnUse">
<stop stop-color="#27BAEC"/>
<stop offset="1" stop-color="#253EE0"/>
</linearGradient>
<linearGradient id="paint33_linear_2040_11603" x1="728.513" y1="159.737" x2="705.135" y2="180.63" gradientUnits="userSpaceOnUse">
<stop stop-color="#27BAEC"/>
<stop offset="1" stop-color="#253EE0"/>
</linearGradient>
<linearGradient id="paint34_linear_2040_11603" x1="753.737" y1="159.737" x2="729.924" y2="180.747" gradientUnits="userSpaceOnUse">
<stop stop-color="#27BAEC"/>
<stop offset="1" stop-color="#253EE0"/>
</linearGradient>
<linearGradient id="paint35_linear_2040_11603" x1="770.588" y1="159.712" x2="750.589" y2="170.849" gradientUnits="userSpaceOnUse">
<stop stop-color="#27BAEC"/>
<stop offset="1" stop-color="#253EE0"/>
</linearGradient>
<linearGradient id="paint36_linear_2040_11603" x1="795.112" y1="160.262" x2="763.909" y2="181.75" gradientUnits="userSpaceOnUse">
<stop stop-color="#27BAEC"/>
<stop offset="1" stop-color="#253EE0"/>
</linearGradient>
<linearGradient id="paint37_linear_2040_11603" x1="372.737" y1="221.037" x2="345.923" y2="243.211" gradientUnits="userSpaceOnUse">
<stop stop-color="#27BAEC"/>
<stop offset="1" stop-color="#253EE0"/>
</linearGradient>
<linearGradient id="paint38_linear_2040_11603" x1="379.187" y1="221.012" x2="372.253" y2="221.909" gradientUnits="userSpaceOnUse">
<stop stop-color="#27BAEC"/>
<stop offset="1" stop-color="#253EE0"/>
</linearGradient>
<linearGradient id="paint39_linear_2040_11603" x1="402.438" y1="221.012" x2="376.331" y2="240.33" gradientUnits="userSpaceOnUse">
<stop stop-color="#27BAEC"/>
<stop offset="1" stop-color="#253EE0"/>
</linearGradient>
<linearGradient id="paint40_linear_2040_11603" x1="437.787" y1="220.588" x2="413.237" y2="234.99" gradientUnits="userSpaceOnUse">
<stop stop-color="#27BAEC"/>
<stop offset="1" stop-color="#253EE0"/>
</linearGradient>
<linearGradient id="paint41_linear_2040_11603" x1="451.787" y1="223.088" x2="432.56" y2="231.772" gradientUnits="userSpaceOnUse">
<stop stop-color="#27BAEC"/>
<stop offset="1" stop-color="#253EE0"/>
</linearGradient>
<linearGradient id="paint42_linear_2040_11603" x1="472.362" y1="228.713" x2="452.654" y2="245.079" gradientUnits="userSpaceOnUse">
<stop stop-color="#27BAEC"/>
<stop offset="1" stop-color="#253EE0"/>
</linearGradient>
<linearGradient id="paint43_linear_2040_11603" x1="495.187" y1="219.562" x2="468.813" y2="236.264" gradientUnits="userSpaceOnUse">
<stop stop-color="#27BAEC"/>
<stop offset="1" stop-color="#253EE0"/>
</linearGradient>
<linearGradient id="paint44_linear_2040_11603" x1="516.837" y1="228.288" x2="496.67" y2="245.348" gradientUnits="userSpaceOnUse">
<stop stop-color="#27BAEC"/>
<stop offset="1" stop-color="#253EE0"/>
</linearGradient>
<linearGradient id="paint45_linear_2040_11603" x1="537.887" y1="228.288" x2="518.142" y2="244.857" gradientUnits="userSpaceOnUse">
<stop stop-color="#27BAEC"/>
<stop offset="1" stop-color="#253EE0"/>
</linearGradient>
<linearGradient id="paint46_linear_2040_11603" x1="552.962" y1="223.088" x2="533.708" y2="231.804" gradientUnits="userSpaceOnUse">
<stop stop-color="#27BAEC"/>
<stop offset="1" stop-color="#253EE0"/>
</linearGradient>
<linearGradient id="paint47_linear_2040_11603" x1="584.787" y1="220.588" x2="557.924" y2="240.383" gradientUnits="userSpaceOnUse">
<stop stop-color="#27BAEC"/>
<stop offset="1" stop-color="#253EE0"/>
</linearGradient>
<linearGradient id="paint48_linear_2040_11603" x1="605.713" y1="219.562" x2="580.757" y2="234.036" gradientUnits="userSpaceOnUse">
<stop stop-color="#27BAEC"/>
<stop offset="1" stop-color="#253EE0"/>
</linearGradient>
<linearGradient id="paint49_linear_2040_11603" x1="625.637" y1="228.288" x2="605.88" y2="243.389" gradientUnits="userSpaceOnUse">
<stop stop-color="#27BAEC"/>
<stop offset="1" stop-color="#253EE0"/>
</linearGradient>
<linearGradient id="paint50_linear_2040_11603" x1="649.562" y1="228.262" x2="623.683" y2="245.492" gradientUnits="userSpaceOnUse">
<stop stop-color="#27BAEC"/>
<stop offset="1" stop-color="#253EE0"/>
</linearGradient>
<linearGradient id="paint51_linear_2040_11603" x1="663.487" y1="223.088" x2="644.206" y2="231.835" gradientUnits="userSpaceOnUse">
<stop stop-color="#27BAEC"/>
<stop offset="1" stop-color="#253EE0"/>
</linearGradient>
<linearGradient id="paint52_linear_2040_11603" x1="683.137" y1="228.288" x2="662.97" y2="245.348" gradientUnits="userSpaceOnUse">
<stop stop-color="#27BAEC"/>
<stop offset="1" stop-color="#253EE0"/>
</linearGradient>
<linearGradient id="paint53_linear_2040_11603" x1="697.237" y1="228.262" x2="681.4" y2="236.033" gradientUnits="userSpaceOnUse">
<stop stop-color="#27BAEC"/>
<stop offset="1" stop-color="#253EE0"/>
</linearGradient>
</defs>
</svg>
