<svg width="300" height="300" viewBox="0 0 300 300" fill="none" xmlns="http://www.w3.org/2000/svg">
<g filter="url(#filter0_d_2040_11595)">
<path fill-rule="evenodd" clip-rule="evenodd" d="M260 89C260 68.4137 243.599 53.0608 224.606 43.5812C204.88 33.7368 178.486 28 150 28C121.513 28 95.1194 33.7368 75.3947 43.5812C56.4011 53.0608 40 68.4137 40 89V211C40 231.586 56.4011 246.939 75.3947 256.419C95.1194 266.264 121.513 272 150 272C178.486 272 204.88 266.264 224.606 256.419C243.599 246.939 260 231.586 260 211V89ZM66.0324 176.265C69.3595 170.403 76.818 168.343 82.6911 171.664C98.3412 180.513 122.353 186.6 150.001 186.6C177.648 186.6 201.66 180.513 217.31 171.664C223.183 168.343 230.642 170.403 233.969 176.265C237.296 182.127 235.233 189.572 229.359 192.894C209.176 204.307 180.761 211 150.001 211C119.24 211 90.825 204.307 70.6422 192.894C64.7691 189.572 62.7051 182.127 66.0324 176.265ZM82.6901 110.664C76.817 107.343 69.3586 109.403 66.0314 115.265C62.7042 121.128 64.7681 128.573 70.6414 131.894C90.824 143.307 119.239 150 150 150C180.761 150 209.175 143.307 229.358 131.894C235.232 128.573 237.295 121.128 233.968 115.265C230.641 109.403 223.183 107.343 217.309 110.664C201.66 119.514 177.647 125.6 150 125.6C122.352 125.6 98.3402 119.514 82.6901 110.664Z" fill="black"/>
</g>
<defs>
<filter id="filter0_d_2040_11595" x="40" y="28" width="220" height="248" filterUnits="userSpaceOnUse" color-interpolation-filters="sRGB">
<feFlood flood-opacity="0" result="BackgroundImageFix"/>
<feColorMatrix in="SourceAlpha" type="matrix" values="0 0 0 0 0 0 0 0 0 0 0 0 0 0 0 0 0 0 127 0" result="hardAlpha"/>
<feOffset dy="4"/>
<feComposite in2="hardAlpha" operator="out"/>
<feColorMatrix type="matrix" values="0 0 0 0 0.231575 0 0 0 0 0.954948 0 0 0 0 0.781833 0 0 0 1 0"/>
<feBlend mode="normal" in2="BackgroundImageFix" result="effect1_dropShadow_2040_11595"/>
<feBlend mode="normal" in="SourceGraphic" in2="effect1_dropShadow_2040_11595" result="shape"/>
</filter>
</defs>
</svg>
