<svg width="300" height="300" viewBox="0 0 300 300" fill="none" xmlns="http://www.w3.org/2000/svg">
<g filter="url(#filter0_d_2040_11575)">
<path d="M68.7445 168.531V83.9727H44.3849C32.6105 83.9727 23 93.8651 23 105.936V208.678C23 220.749 32.6105 230.642 44.3849 230.642H75.0215V253.271C75.0215 254.785 75.9229 256.146 77.2743 256.721C78.6263 257.295 80.2179 256.963 81.2388 255.904L105.869 230.642H158.492C170.266 230.642 179.878 220.749 179.878 208.678V208.647H108.121C86.405 208.647 68.7445 190.646 68.7445 168.531Z" fill="black"/>
<path d="M251.647 42H108.121C94.7268 42 83.7678 53.2427 83.7678 66.9822V168.528C83.7678 182.269 94.7268 193.511 108.121 193.511H185.3C187.98 193.511 190.548 194.587 192.428 196.498L226.722 231.352C227.907 232.567 229.689 232.93 231.236 232.273C232.784 231.616 233.794 230.067 233.794 228.348V203.511C233.794 197.989 238.271 193.511 243.794 193.511H251.647C265.041 193.511 276 182.269 276 168.528V66.9822C276 53.2427 265.04 42 251.647 42ZM205.415 155.45C205.415 158.792 202.706 161.501 199.364 161.501H125.863C122.521 161.501 119.812 158.792 119.812 155.45C119.812 152.109 122.521 149.4 125.863 149.4H199.364C202.706 149.4 205.415 152.109 205.415 155.45ZM239.956 117.634C239.956 120.976 237.247 123.684 233.906 123.684H125.862C122.521 123.684 119.812 120.976 119.812 117.634C119.812 114.292 122.521 111.584 125.862 111.584H233.906C237.247 111.584 239.956 114.292 239.956 117.634ZM239.956 79.8167C239.956 83.1584 237.247 85.8673 233.905 85.8673H125.862C122.521 85.8673 119.812 83.1584 119.812 79.8167C119.812 76.4751 122.521 73.7662 125.862 73.7662H233.905C237.247 73.7662 239.956 76.4751 239.956 79.8167Z" fill="black"/>
</g>
<defs>
<filter id="filter0_d_2040_11575" x="23" y="42" width="253" height="219" filterUnits="userSpaceOnUse" color-interpolation-filters="sRGB">
<feFlood flood-opacity="0" result="BackgroundImageFix"/>
<feColorMatrix in="SourceAlpha" type="matrix" values="0 0 0 0 0 0 0 0 0 0 0 0 0 0 0 0 0 0 127 0" result="hardAlpha"/>
<feOffset dy="4"/>
<feComposite in2="hardAlpha" operator="out"/>
<feColorMatrix type="matrix" values="0 0 0 0 0.231575 0 0 0 0 0.954948 0 0 0 0 0.781833 0 0 0 1 0"/>
<feBlend mode="normal" in2="BackgroundImageFix" result="effect1_dropShadow_2040_11575"/>
<feBlend mode="normal" in="SourceGraphic" in2="effect1_dropShadow_2040_11575" result="shape"/>
</filter>
</defs>
</svg>
