<svg width="300" height="300" viewBox="0 0 300 300" fill="none" xmlns="http://www.w3.org/2000/svg">
<g filter="url(#filter0_d_2040_11586)">
<path d="M34.4322 183.95L40.9027 208.099C48.4559 236.286 52.2324 250.381 60.7939 259.523C67.554 266.74 76.3026 271.791 85.9332 274.036C98.1305 276.88 112.225 273.104 140.414 265.55C168.601 257.998 182.696 254.221 191.837 245.66C192.596 244.949 193.33 244.216 194.041 243.463C189.864 243.113 185.65 242.44 181.367 241.589C172.666 239.859 162.327 237.088 150.1 233.811L148.765 233.454L148.455 233.371C135.151 229.806 124.035 226.821 115.16 223.615C105.826 220.244 97.345 216.088 90.1435 209.343C80.2191 200.048 73.2741 188.018 70.1864 174.775C67.9459 165.166 68.5864 155.743 70.3332 145.974C72.0072 136.613 75.0136 125.394 78.6157 111.952L85.2956 87.0218L85.5306 86.145C61.5237 92.612 48.8876 96.4381 40.4609 104.331C33.2431 111.091 28.1921 119.839 25.9466 129.47C23.1026 141.668 26.8791 155.761 34.4322 183.95Z" fill="black"/>
</g>
<g filter="url(#filter1_d_2040_11586)">
<path fill-rule="evenodd" clip-rule="evenodd" d="M260.366 133.942L253.895 158.091C246.342 186.28 242.565 200.374 234.004 209.515C227.244 216.732 218.495 221.784 208.865 224.029C207.661 224.31 206.44 224.526 205.188 224.68C193.749 226.091 179.792 222.351 154.385 215.544C126.196 207.99 112.102 204.214 102.961 195.652C95.7431 188.892 90.6921 180.144 88.4466 170.512C85.6026 158.315 89.3791 144.221 96.9322 116.033L103.403 91.8846C104.489 87.8317 105.497 84.0675 106.453 80.5701C112.141 59.7446 115.964 48.2872 123.294 40.4609C130.054 33.2431 138.802 28.1921 148.434 25.9466C160.63 23.1026 174.725 26.8791 202.914 34.4322C231.101 41.9854 245.196 45.7619 254.338 54.3234C261.555 61.0835 266.606 69.8321 268.851 79.4629C271.695 91.66 267.919 105.754 260.366 133.942ZM138.155 122.574C139.495 117.572 144.636 114.604 149.637 115.944L210.007 132.121C215.009 133.461 217.976 138.601 216.636 143.602C215.296 148.604 210.156 151.571 205.155 150.231L144.784 134.055C139.782 132.715 136.815 127.575 138.155 122.574ZM128.445 158.791C129.785 153.79 134.925 150.822 139.926 152.162L176.149 161.869C181.15 163.209 184.118 168.349 182.778 173.35C181.438 178.351 176.298 181.32 171.296 179.98L135.074 170.274C130.072 168.934 127.104 163.792 128.445 158.791Z" fill="black"/>
</g>
<defs>
<filter id="filter0_d_2040_11586" x="25" y="86.145" width="169.041" height="192.838" filterUnits="userSpaceOnUse" color-interpolation-filters="sRGB">
<feFlood flood-opacity="0" result="BackgroundImageFix"/>
<feColorMatrix in="SourceAlpha" type="matrix" values="0 0 0 0 0 0 0 0 0 0 0 0 0 0 0 0 0 0 127 0" result="hardAlpha"/>
<feOffset dy="4"/>
<feComposite in2="hardAlpha" operator="out"/>
<feColorMatrix type="matrix" values="0 0 0 0 0.231575 0 0 0 0 0.954948 0 0 0 0 0.781833 0 0 0 1 0"/>
<feBlend mode="normal" in2="BackgroundImageFix" result="effect1_dropShadow_2040_11586"/>
<feBlend mode="normal" in="SourceGraphic" in2="effect1_dropShadow_2040_11586" result="shape"/>
</filter>
<filter id="filter1_d_2040_11586" x="87.5" y="25" width="182.298" height="203.976" filterUnits="userSpaceOnUse" color-interpolation-filters="sRGB">
<feFlood flood-opacity="0" result="BackgroundImageFix"/>
<feColorMatrix in="SourceAlpha" type="matrix" values="0 0 0 0 0 0 0 0 0 0 0 0 0 0 0 0 0 0 127 0" result="hardAlpha"/>
<feOffset dy="4"/>
<feComposite in2="hardAlpha" operator="out"/>
<feColorMatrix type="matrix" values="0 0 0 0 0.231575 0 0 0 0 0.954948 0 0 0 0 0.781833 0 0 0 1 0"/>
<feBlend mode="normal" in2="BackgroundImageFix" result="effect1_dropShadow_2040_11586"/>
<feBlend mode="normal" in="SourceGraphic" in2="effect1_dropShadow_2040_11586" result="shape"/>
</filter>
</defs>
</svg>
