<svg width="300" height="300" viewBox="0 0 300 300" fill="none" xmlns="http://www.w3.org/2000/svg">
<g filter="url(#filter0_d_2040_11610)">
<path fill-rule="evenodd" clip-rule="evenodd" d="M87.5 62.5C73.6931 62.5 62.5 73.6931 62.5 87.5V237.5C62.5 251.307 73.6931 262.5 87.5 262.5H212.5C226.307 262.5 237.5 251.307 237.5 237.5V87.5C237.5 73.6931 226.307 62.5 212.5 62.5H87.5ZM98.4375 112.5C95.4177 112.5 92.9688 114.949 92.9688 117.969V130.469C92.9688 133.488 95.4177 135.938 98.4375 135.938H110.938C113.957 135.938 116.406 133.488 116.406 130.469V117.969C116.406 114.949 113.957 112.5 110.938 112.5H98.4375ZM131.25 116.406C127.798 116.406 125 119.204 125 122.656C125 126.108 127.798 128.906 131.25 128.906H206.25C209.702 128.906 212.5 126.108 212.5 122.656C212.5 119.204 209.702 116.406 206.25 116.406H131.25ZM98.4375 150C95.4177 150 92.9688 152.449 92.9688 155.469V167.969C92.9688 170.988 95.4177 173.438 98.4375 173.438H110.938C113.957 173.438 116.406 170.988 116.406 167.969V155.469C116.406 152.449 113.957 150 110.938 150H98.4375ZM131.25 153.906C127.798 153.906 125 156.704 125 160.156C125 163.608 127.798 166.406 131.25 166.406H193.75C197.202 166.406 200 163.608 200 160.156C200 156.704 197.202 153.906 193.75 153.906H131.25ZM98.4375 187.5C95.4177 187.5 92.9688 189.949 92.9688 192.969V205.469C92.9688 208.488 95.4177 210.938 98.4375 210.938H110.938C113.957 210.938 116.406 208.488 116.406 205.469V192.969C116.406 189.949 113.957 187.5 110.938 187.5H98.4375ZM131.25 191.406C127.798 191.406 125 194.204 125 197.656C125 201.108 127.798 203.906 131.25 203.906H200C203.452 203.906 206.25 201.108 206.25 197.656C206.25 194.204 203.452 191.406 200 191.406H131.25Z" fill="black"/>
<path fill-rule="evenodd" clip-rule="evenodd" d="M125 37.5C114.645 37.5 106.25 45.8947 106.25 56.25V62.5H118.75V56.25C118.75 52.7982 121.548 50 125 50H175C178.452 50 181.25 52.7982 181.25 56.25V62.5H193.75V56.25C193.75 45.8947 185.355 37.5 175 37.5H125ZM134.375 75C130.923 75 128.125 77.7982 128.125 81.25C128.125 84.7018 130.923 87.5 134.375 87.5H165.625C169.077 87.5 171.875 84.7018 171.875 81.25C171.875 77.7982 169.077 75 165.625 75H134.375Z" fill="black"/>
<path d="M187.5 75H218.75V128.125L203.125 116.406L187.5 128.125V75Z" fill="black"/>
</g>
<defs>
<filter id="filter0_d_2040_11610" x="62.5" y="37.5" width="175" height="229" filterUnits="userSpaceOnUse" color-interpolation-filters="sRGB">
<feFlood flood-opacity="0" result="BackgroundImageFix"/>
<feColorMatrix in="SourceAlpha" type="matrix" values="0 0 0 0 0 0 0 0 0 0 0 0 0 0 0 0 0 0 127 0" result="hardAlpha"/>
<feOffset dy="4"/>
<feComposite in2="hardAlpha" operator="out"/>
<feColorMatrix type="matrix" values="0 0 0 0 0.231575 0 0 0 0 0.954948 0 0 0 0 0.781833 0 0 0 1 0"/>
<feBlend mode="normal" in2="BackgroundImageFix" result="effect1_dropShadow_2040_11610"/>
<feBlend mode="normal" in="SourceGraphic" in2="effect1_dropShadow_2040_11610" result="shape"/>
</filter>
</defs>
</svg>
