<svg width="300" height="300" viewBox="0 0 300 300" fill="none" xmlns="http://www.w3.org/2000/svg">
<path d="M139.062 156.25L125 122.5L110.938 156.25H139.062Z" fill="black"/>
<g filter="url(#filter0_d_2040_11566)">
<path fill-rule="evenodd" clip-rule="evenodd" d="M237.5 237.5C237.5 251.307 226.307 262.5 212.5 262.5H87.5C73.6931 262.5 62.5 251.307 62.5 237.5V62.5C62.5 48.6929 73.6931 37.5 87.5 37.5H175L237.5 100V237.5ZM181.25 61.4277L213.572 93.75H181.25V61.4277ZM130.769 103.846C129.799 101.517 127.523 100 125 100C122.477 100 120.201 101.517 119.231 103.846L87.9806 178.846C86.6531 182.032 88.16 185.692 91.3463 187.019C94.5325 188.347 98.1919 186.84 99.5194 183.654L105.729 168.75H144.271L150.481 183.654C151.808 186.84 155.467 188.347 158.654 187.019C161.84 185.692 163.347 182.032 162.019 178.846L130.769 103.846ZM93.75 200C90.2981 200 87.5 202.798 87.5 206.25C87.5 209.702 90.2981 212.5 93.75 212.5H206.25C209.702 212.5 212.5 209.702 212.5 206.25C212.5 202.798 209.702 200 206.25 200H93.75ZM87.5 231.25C87.5 227.798 90.2981 225 93.75 225H168.75C172.202 225 175 227.798 175 231.25C175 234.702 172.202 237.5 168.75 237.5H93.75C90.2981 237.5 87.5 234.702 87.5 231.25ZM187.5 137.5C190.952 137.5 193.75 140.298 193.75 143.75V156.25H206.25C209.702 156.25 212.5 159.048 212.5 162.5C212.5 165.952 209.702 168.75 206.25 168.75H193.75V181.25C193.75 184.702 190.952 187.5 187.5 187.5C184.048 187.5 181.25 184.702 181.25 181.25V168.75H168.75C165.298 168.75 162.5 165.952 162.5 162.5C162.5 159.048 165.298 156.25 168.75 156.25H181.25V143.75C181.25 140.298 184.048 137.5 187.5 137.5Z" fill="black"/>
</g>
<defs>
<filter id="filter0_d_2040_11566" x="62.5" y="37.5" width="175" height="229" filterUnits="userSpaceOnUse" color-interpolation-filters="sRGB">
<feFlood flood-opacity="0" result="BackgroundImageFix"/>
<feColorMatrix in="SourceAlpha" type="matrix" values="0 0 0 0 0 0 0 0 0 0 0 0 0 0 0 0 0 0 127 0" result="hardAlpha"/>
<feOffset dy="4"/>
<feComposite in2="hardAlpha" operator="out"/>
<feColorMatrix type="matrix" values="0 0 0 0 0.231575 0 0 0 0 0.954948 0 0 0 0 0.781833 0 0 0 1 0"/>
<feBlend mode="normal" in2="BackgroundImageFix" result="effect1_dropShadow_2040_11566"/>
<feBlend mode="normal" in="SourceGraphic" in2="effect1_dropShadow_2040_11566" result="shape"/>
</filter>
</defs>
</svg>
