<svg width="17" height="15" viewBox="0 0 17 15" fill="none" xmlns="http://www.w3.org/2000/svg">
<path fill-rule="evenodd" clip-rule="evenodd" d="M2.09168 2.22515L2.88083 6.76274H7.75001C8.16422 6.76274 8.50001 7.09852 8.50001 7.51274C8.50001 7.92695 8.16422 8.26274 7.75001 8.26274H2.88083L2.09168 12.8003L14.4294 7.51274L2.09168 2.22515ZM1.48875 7.51274L0.563675 2.19357C0.48889 1.76356 0.628032 1.32405 0.936661 1.01542C1.32445 0.627637 1.90926 0.515007 2.41333 0.731037L15.8157 6.4749C16.2308 6.65283 16.5 7.06105 16.5 7.51274C16.5 7.96442 16.2308 8.37265 15.8157 8.55058L2.41333 14.2944C1.90926 14.5105 1.32445 14.3978 0.936661 14.0101C0.628032 13.7014 0.48889 13.2619 0.563675 12.8319L1.48875 7.51274Z" fill="#838383"/>
</svg>
