<svg width="20" height="20" viewBox="0 0 20 20" fill="none" xmlns="http://www.w3.org/2000/svg">
<path d="M18.8197 12.2139C18.8197 12.7662 18.372 13.2139 17.8197 13.2139H14.8197V1.21387H17.8197C18.372 1.21387 18.8197 1.66159 18.8197 2.21387V12.2139Z" stroke="black" stroke-width="2" stroke-linecap="round" stroke-linejoin="round"/>
<path d="M14.8198 11.2139V3.21387L12.8275 1.88567C12.1704 1.44762 11.3984 1.21387 10.6087 1.21387H5.36113C3.89461 1.21387 2.64304 2.27411 2.40195 3.72067L1.20788 10.8851C1.00471 12.1042 1.94479 13.2139 3.18067 13.2139H7.81975" stroke="black" stroke-width="2" stroke-linecap="round" stroke-linejoin="round"/>
<path d="M7.81978 13.2139L7.13261 16.6497C6.95389 17.5433 7.46854 18.4302 8.33308 18.7183C9.18618 19.0027 10.1185 18.6165 10.5206 17.8122L13.8198 11.2139H14.8198" stroke="black" stroke-width="2" stroke-linecap="round" stroke-linejoin="round"/>
</svg>
