<svg width="21" height="21" viewBox="0 0 21 21" fill="none" xmlns="http://www.w3.org/2000/svg">
<path d="M1.5 8.21387C1.5 7.66159 1.94772 7.21387 2.5 7.21387H5.5V19.2139H2.5C1.94772 19.2139 1.5 18.7662 1.5 18.2139V8.21387Z" stroke="currentColor" stroke-width="2" stroke-linecap="round" stroke-linejoin="round"/>
<path d="M5.5 9.21387V17.2139L7.4923 18.5421C8.14937 18.9801 8.9214 19.2139 9.7111 19.2139H14.9586C16.4251 19.2139 17.6767 18.1537 17.9178 16.7071L19.1119 9.54267C19.315 8.32357 18.375 7.21387 17.1391 7.21387H12.5" stroke="currentColor" stroke-width="2" stroke-linecap="round" stroke-linejoin="round"/>
<path d="M12.5 7.21364L13.1872 3.77779C13.3659 2.88421 12.8512 1.99739 11.9867 1.70922C11.1336 1.42486 10.2013 1.81105 9.7992 2.61534L6.5 9.21364H5.5" stroke="currentColor" stroke-width="2" stroke-linecap="round" stroke-linejoin="round"/>
</svg>
