<svg width="188" height="188" viewBox="0 0 188 188" fill="none" xmlns="http://www.w3.org/2000/svg">
<path d="M188 94C188 145.915 145.915 188 94 188C42.0852 188 0 145.915 0 94C0 42.0852 42.0852 0 94 0C145.915 0 188 42.0852 188 94ZM18.8167 94C18.8167 135.523 52.4774 169.183 94 169.183C135.523 169.183 169.183 135.523 169.183 94C169.183 52.4774 135.523 18.8167 94 18.8167C52.4774 18.8167 18.8167 52.4774 18.8167 94Z" fill="white" fill-opacity="0.1"/>
<path d="M9.40833 94C4.21225 94 -0.0487645 89.7774 0.470442 84.6073C1.38653 75.4852 3.63399 66.529 7.15532 58.0278C11.8793 46.6232 18.8033 36.2607 27.532 27.532C36.2607 18.8033 46.6232 11.8793 58.0278 7.15532C66.529 3.63399 75.4852 1.38653 84.6073 0.470442C89.7774 -0.0487647 94 4.21225 94 9.40833V9.40833C94 14.6044 89.7716 18.756 84.6161 19.4046C77.9672 20.241 71.4458 21.9644 65.2286 24.5396C56.1069 28.318 47.8188 33.8559 40.8373 40.8373C33.8559 47.8188 28.318 56.1069 24.5396 65.2286C21.9644 71.4458 20.241 77.9672 19.4046 84.6161C18.756 89.7716 14.6044 94 9.40833 94V94Z" fill="url(#paint0_linear_2725_7696)"/>
<defs>
<linearGradient id="paint0_linear_2725_7696" x1="0" y1="188" x2="188" y2="0" gradientUnits="userSpaceOnUse">
<stop offset="0.2" stop-color="#27BAEC"/>
<stop offset="0.8" stop-color="#253EE0"/>
</linearGradient>
</defs>
</svg>
