<svg width="101" height="101" viewBox="0 0 101 101" fill="none" xmlns="http://www.w3.org/2000/svg">
<mask id="path-1-inside-1_2218_3343" fill="white">
<path fill-rule="evenodd" clip-rule="evenodd" d="M55.5 0.75H45.5V45.75H0.5V55.75H45.5V100.75H55.5V55.75H100.5V45.75H55.5V0.75Z"/>
</mask>
<path d="M45.5 0.75V0.25H45V0.75H45.5ZM55.5 0.75H56V0.25H55.5V0.75ZM45.5 45.75V46.25H46V45.75H45.5ZM0.5 45.75V45.25H0V45.75H0.5ZM0.5 55.75H0V56.25H0.5V55.75ZM45.5 55.75H46V55.25H45.5V55.75ZM45.5 100.75H45V101.25H45.5V100.75ZM55.5 100.75V101.25H56V100.75H55.5ZM55.5 55.75V55.25H55V55.75H55.5ZM100.5 55.75V56.25H101V55.75H100.5ZM100.5 45.75H101V45.25H100.5V45.75ZM55.5 45.75H55V46.25H55.5V45.75ZM45 0.75V1.77273H46V0.75H45ZM45 3.81818V5.86364H46V3.81818H45ZM45 7.90909V9.95455H46V7.90909H45ZM45 12V14.0455H46V12H45ZM45 16.0909V18.1364H46V16.0909H45ZM45 20.1818V22.2273H46V20.1818H45ZM45 24.2727V26.3182H46V24.2727H45ZM45 28.3636V30.4091H46V28.3636H45ZM45 32.4545V34.5H46V32.4545H45ZM45 36.5455V38.5909H46V36.5455H45ZM45 40.6364V42.6818H46V40.6364H45ZM45 44.7273V45.75H46V44.7273H45ZM45.5 45.25H44.4773V46.25H45.5V45.25ZM42.4318 45.25H40.3864V46.25H42.4318V45.25ZM38.3409 45.25H36.2955V46.25H38.3409V45.25ZM34.25 45.25H32.2045V46.25H34.25V45.25ZM30.1591 45.25H28.1136V46.25H30.1591V45.25ZM26.0682 45.25H24.0227V46.25H26.0682V45.25ZM21.9773 45.25H19.9318V46.25H21.9773V45.25ZM17.8864 45.25H15.8409V46.25H17.8864V45.25ZM13.7955 45.25H11.75V46.25H13.7955V45.25ZM9.70455 45.25H7.65909V46.25H9.70455V45.25ZM5.61364 45.25H3.56818V46.25H5.61364V45.25ZM1.52272 45.25H0.5V46.25H1.52272V45.25ZM0 45.75V46.5833H1V45.75H0ZM0 48.25V49.9167H1V48.25H0ZM0 51.5833V53.25H1V51.5833H0ZM0 54.9167V55.75H1V54.9167H0ZM0.5 56.25H1.52273V55.25H0.5V56.25ZM3.56818 56.25H5.61364V55.25H3.56818V56.25ZM7.65909 56.25H9.70455V55.25H7.65909V56.25ZM11.75 56.25H13.7955V55.25H11.75V56.25ZM15.8409 56.25H17.8864V55.25H15.8409V56.25ZM19.9318 56.25H21.9773V55.25H19.9318V56.25ZM24.0227 56.25H26.0682V55.25H24.0227V56.25ZM28.1136 56.25H30.1591V55.25H28.1136V56.25ZM32.2045 56.25H34.25V55.25H32.2045V56.25ZM36.2955 56.25H38.3409V55.25H36.2955V56.25ZM40.3864 56.25H42.4318V55.25H40.3864V56.25ZM44.4773 56.25H45.5V55.25H44.4773V56.25ZM45 55.75V56.7727H46V55.75H45ZM45 58.8182V60.8636H46V58.8182H45ZM45 62.9091V64.9545H46V62.9091H45ZM45 67V69.0455H46V67H45ZM45 71.0909V73.1364H46V71.0909H45ZM45 75.1818V77.2273H46V75.1818H45ZM45 79.2727V81.3182H46V79.2727H45ZM45 83.3636V85.4091H46V83.3636H45ZM45 87.4545V89.5H46V87.4545H45ZM45 91.5455V93.5909H46V91.5455H45ZM45 95.6364V97.6818H46V95.6364H45ZM45 99.7273V100.75H46V99.7273H45ZM45.5 101.25H46.3333V100.25H45.5V101.25ZM48 101.25H49.6667V100.25H48V101.25ZM51.3333 101.25H53V100.25H51.3333V101.25ZM54.6667 101.25H55.5V100.25H54.6667V101.25ZM56 100.75V99.7273H55V100.75H56ZM56 97.6818V95.6364H55V97.6818H56ZM56 93.5909V91.5455H55V93.5909H56ZM56 89.5V87.4545H55V89.5H56ZM56 85.4091V83.3636H55V85.4091H56ZM56 81.3182V79.2727H55V81.3182H56ZM56 77.2273V75.1818H55V77.2273H56ZM56 73.1364V71.0909H55V73.1364H56ZM56 69.0455V67H55V69.0455H56ZM56 64.9545V62.9091H55V64.9545H56ZM56 60.8636V58.8182H55V60.8636H56ZM56 56.7727V55.75H55V56.7727H56ZM55.5 56.25H56.5227V55.25H55.5V56.25ZM58.5682 56.25H60.6136V55.25H58.5682V56.25ZM62.6591 56.25H64.7045V55.25H62.6591V56.25ZM66.75 56.25H68.7955V55.25H66.75V56.25ZM70.8409 56.25H72.8864V55.25H70.8409V56.25ZM74.9318 56.25H76.9773V55.25H74.9318V56.25ZM79.0227 56.25H81.0682V55.25H79.0227V56.25ZM83.1136 56.25H85.1591V55.25H83.1136V56.25ZM87.2045 56.25H89.25V55.25H87.2045V56.25ZM91.2955 56.25H93.3409V55.25H91.2955V56.25ZM95.3864 56.25H97.4318V55.25H95.3864V56.25ZM99.4773 56.25H100.5V55.25H99.4773V56.25ZM101 55.75V54.9167H100V55.75H101ZM101 53.25V51.5833H100V53.25H101ZM101 49.9167V48.25H100V49.9167H101ZM101 46.5833V45.75H100V46.5833H101ZM100.5 45.25H99.4773V46.25H100.5V45.25ZM97.4318 45.25H95.3864V46.25H97.4318V45.25ZM93.3409 45.25H91.2955V46.25H93.3409V45.25ZM89.25 45.25H87.2045V46.25H89.25V45.25ZM85.1591 45.25H83.1136V46.25H85.1591V45.25ZM81.0682 45.25H79.0227V46.25H81.0682V45.25ZM76.9773 45.25H74.9318V46.25H76.9773V45.25ZM72.8864 45.25H70.8409V46.25H72.8864V45.25ZM68.7955 45.25H66.75V46.25H68.7955V45.25ZM64.7045 45.25H62.6591V46.25H64.7045V45.25ZM60.6136 45.25H58.5682V46.25H60.6136V45.25ZM56.5227 45.25H55.5V46.25H56.5227V45.25ZM56 45.75V44.7273H55V45.75H56ZM56 42.6818V40.6364H55V42.6818H56ZM56 38.5909V36.5455H55V38.5909H56ZM56 34.5V32.4545H55V34.5H56ZM56 30.4091V28.3636H55V30.4091H56ZM56 26.3182V24.2727H55V26.3182H56ZM56 22.2273V20.1818H55V22.2273H56ZM56 18.1364V16.0909H55V18.1364H56ZM56 14.0455V12H55V14.0455H56ZM56 9.95455V7.90909H55V9.95455H56ZM56 5.86364V3.81818H55V5.86364H56ZM56 1.77272V0.75H55V1.77272H56ZM55.5 0.25H54.6667V1.25H55.5V0.25ZM53 0.25H51.3333V1.25H53V0.25ZM49.6667 0.25H48V1.25H49.6667V0.25ZM46.3333 0.25H45.5V1.25H46.3333V0.25ZM45.5 0.75V-0.25H44.5V0.75H45.5ZM55.5 0.75H56.5V-0.25H55.5V0.75ZM45.5 45.75V46.75H46.5V45.75H45.5ZM0.5 45.75V44.75H-0.5V45.75H0.5ZM0.5 55.75H-0.5V56.75H0.5V55.75ZM45.5 55.75H46.5V54.75H45.5V55.75ZM45.5 100.75H44.5V101.75H45.5V100.75ZM55.5 100.75V101.75H56.5V100.75H55.5ZM55.5 55.75V54.75H54.5V55.75H55.5ZM100.5 55.75V56.75H101.5V55.75H100.5ZM100.5 45.75H101.5V44.75H100.5V45.75ZM55.5 45.75H54.5V46.75H55.5V45.75ZM44.5 0.75V1.77273H46.5V0.75H44.5ZM44.5 3.81818V5.86364H46.5V3.81818H44.5ZM44.5 7.90909V9.95455H46.5V7.90909H44.5ZM44.5 12V14.0455H46.5V12H44.5ZM44.5 16.0909V18.1364H46.5V16.0909H44.5ZM44.5 20.1818V22.2273H46.5V20.1818H44.5ZM44.5 24.2727V26.3182H46.5V24.2727H44.5ZM44.5 28.3636V30.4091H46.5V28.3636H44.5ZM44.5 32.4545V34.5H46.5V32.4545H44.5ZM44.5 36.5455V38.5909H46.5V36.5455H44.5ZM44.5 40.6364V42.6818H46.5V40.6364H44.5ZM44.5 44.7273V45.75H46.5V44.7273H44.5ZM45.5 44.75H44.4773V46.75H45.5V44.75ZM42.4318 44.75H40.3864V46.75H42.4318V44.75ZM38.3409 44.75H36.2955V46.75H38.3409V44.75ZM34.25 44.75H32.2045V46.75H34.25V44.75ZM30.1591 44.75H28.1136V46.75H30.1591V44.75ZM26.0682 44.75H24.0227V46.75H26.0682V44.75ZM21.9773 44.75H19.9318V46.75H21.9773V44.75ZM17.8864 44.75H15.8409V46.75H17.8864V44.75ZM13.7955 44.75H11.75V46.75H13.7955V44.75ZM9.70455 44.75H7.65909V46.75H9.70455V44.75ZM5.61364 44.75H3.56818V46.75H5.61364V44.75ZM1.52272 44.75H0.5V46.75H1.52272V44.75ZM-0.5 45.75V46.5833H1.5V45.75H-0.5ZM-0.5 48.25V49.9167H1.5V48.25H-0.5ZM-0.5 51.5833V53.25H1.5V51.5833H-0.5ZM-0.5 54.9167V55.75H1.5V54.9167H-0.5ZM0.5 56.75H1.52273V54.75H0.5V56.75ZM3.56818 56.75H5.61364V54.75H3.56818V56.75ZM7.65909 56.75H9.70455V54.75H7.65909V56.75ZM11.75 56.75H13.7955V54.75H11.75V56.75ZM15.8409 56.75H17.8864V54.75H15.8409V56.75ZM19.9318 56.75H21.9773V54.75H19.9318V56.75ZM24.0227 56.75H26.0682V54.75H24.0227V56.75ZM28.1136 56.75H30.1591V54.75H28.1136V56.75ZM32.2045 56.75H34.25V54.75H32.2045V56.75ZM36.2955 56.75H38.3409V54.75H36.2955V56.75ZM40.3864 56.75H42.4318V54.75H40.3864V56.75ZM44.4773 56.75H45.5V54.75H44.4773V56.75ZM44.5 55.75V56.7727H46.5V55.75H44.5ZM44.5 58.8182V60.8636H46.5V58.8182H44.5ZM44.5 62.9091V64.9545H46.5V62.9091H44.5ZM44.5 67V69.0455H46.5V67H44.5ZM44.5 71.0909V73.1364H46.5V71.0909H44.5ZM44.5 75.1818V77.2273H46.5V75.1818H44.5ZM44.5 79.2727V81.3182H46.5V79.2727H44.5ZM44.5 83.3636V85.4091H46.5V83.3636H44.5ZM44.5 87.4545V89.5H46.5V87.4545H44.5ZM44.5 91.5455V93.5909H46.5V91.5455H44.5ZM44.5 95.6364V97.6818H46.5V95.6364H44.5ZM44.5 99.7273V100.75H46.5V99.7273H44.5ZM45.5 101.75H46.3333V99.75H45.5V101.75ZM48 101.75H49.6667V99.75H48V101.75ZM51.3333 101.75H53V99.75H51.3333V101.75ZM54.6667 101.75H55.5V99.75H54.6667V101.75ZM56.5 100.75V99.7273H54.5V100.75H56.5ZM56.5 97.6818V95.6364H54.5V97.6818H56.5ZM56.5 93.5909V91.5455H54.5V93.5909H56.5ZM56.5 89.5V87.4545H54.5V89.5H56.5ZM56.5 85.4091V83.3636H54.5V85.4091H56.5ZM56.5 81.3182V79.2727H54.5V81.3182H56.5ZM56.5 77.2273V75.1818H54.5V77.2273H56.5ZM56.5 73.1364V71.0909H54.5V73.1364H56.5ZM56.5 69.0455V67H54.5V69.0455H56.5ZM56.5 64.9545V62.9091H54.5V64.9545H56.5ZM56.5 60.8636V58.8182H54.5V60.8636H56.5ZM56.5 56.7727V55.75H54.5V56.7727H56.5ZM55.5 56.75H56.5227V54.75H55.5V56.75ZM58.5682 56.75H60.6136V54.75H58.5682V56.75ZM62.6591 56.75H64.7045V54.75H62.6591V56.75ZM66.75 56.75H68.7955V54.75H66.75V56.75ZM70.8409 56.75H72.8864V54.75H70.8409V56.75ZM74.9318 56.75H76.9773V54.75H74.9318V56.75ZM79.0227 56.75H81.0682V54.75H79.0227V56.75ZM83.1136 56.75H85.1591V54.75H83.1136V56.75ZM87.2045 56.75H89.25V54.75H87.2045V56.75ZM91.2955 56.75H93.3409V54.75H91.2955V56.75ZM95.3864 56.75H97.4318V54.75H95.3864V56.75ZM99.4773 56.75H100.5V54.75H99.4773V56.75ZM101.5 55.75V54.9167H99.5V55.75H101.5ZM101.5 53.25V51.5833H99.5V53.25H101.5ZM101.5 49.9167V48.25H99.5V49.9167H101.5ZM101.5 46.5833V45.75H99.5V46.5833H101.5ZM100.5 44.75H99.4773V46.75H100.5V44.75ZM97.4318 44.75H95.3864V46.75H97.4318V44.75ZM93.3409 44.75H91.2955V46.75H93.3409V44.75ZM89.25 44.75H87.2045V46.75H89.25V44.75ZM85.1591 44.75H83.1136V46.75H85.1591V44.75ZM81.0682 44.75H79.0227V46.75H81.0682V44.75ZM76.9773 44.75H74.9318V46.75H76.9773V44.75ZM72.8864 44.75H70.8409V46.75H72.8864V44.75ZM68.7955 44.75H66.75V46.75H68.7955V44.75ZM64.7045 44.75H62.6591V46.75H64.7045V44.75ZM60.6136 44.75H58.5682V46.75H60.6136V44.75ZM56.5227 44.75H55.5V46.75H56.5227V44.75ZM56.5 45.75V44.7273H54.5V45.75H56.5ZM56.5 42.6818V40.6364H54.5V42.6818H56.5ZM56.5 38.5909V36.5455H54.5V38.5909H56.5ZM56.5 34.5V32.4545H54.5V34.5H56.5ZM56.5 30.4091V28.3636H54.5V30.4091H56.5ZM56.5 26.3182V24.2727H54.5V26.3182H56.5ZM56.5 22.2273V20.1818H54.5V22.2273H56.5ZM56.5 18.1364V16.0909H54.5V18.1364H56.5ZM56.5 14.0455V12H54.5V14.0455H56.5ZM56.5 9.95455V7.90909H54.5V9.95455H56.5ZM56.5 5.86364V3.81818H54.5V5.86364H56.5ZM56.5 1.77272V0.75H54.5V1.77272H56.5ZM55.5 -0.25H54.6667V1.75H55.5V-0.25ZM53 -0.25H51.3333V1.75H53V-0.25ZM49.6667 -0.25H48V1.75H49.6667V-0.25ZM46.3333 -0.25H45.5V1.75H46.3333V-0.25Z" fill="#838383" mask="url(#path-1-inside-1_2218_3343)"/>
</svg>
