<svg width="220" height="248" viewBox="0 0 220 248" fill="none" xmlns="http://www.w3.org/2000/svg">
<g filter="url(#filter0_d_2040_11596)">
<path fill-rule="evenodd" clip-rule="evenodd" d="M220 61C220 40.4137 203.599 25.0608 184.606 15.5812C164.88 5.73681 138.486 0 110 0C81.5134 0 55.1194 5.73681 35.3947 15.5812C16.4011 25.0608 0 40.4137 0 61V183C0 203.586 16.4011 218.939 35.3947 228.419C55.1194 238.264 81.5134 244 110 244C138.486 244 164.88 238.264 184.606 228.419C203.599 218.939 220 203.586 220 183V61ZM26.0324 148.265C29.3595 142.403 36.818 140.343 42.6911 143.664C58.3412 152.513 82.3533 158.6 110.001 158.6C137.648 158.6 161.66 152.513 177.31 143.664C183.183 140.343 190.642 142.403 193.969 148.265C197.296 154.127 195.233 161.572 189.359 164.894C169.176 176.307 140.761 183 110.001 183C79.2401 183 50.825 176.307 30.6422 164.894C24.7691 161.572 22.7051 154.127 26.0324 148.265ZM42.6901 82.6637C36.817 79.3426 29.3586 81.4027 26.0314 87.2653C22.7042 93.1277 24.7681 100.573 30.6414 103.894C50.824 115.307 79.2392 122 110 122C140.761 122 169.175 115.307 189.358 103.894C195.232 100.573 197.295 93.1277 193.968 87.2653C190.641 81.4027 183.183 79.3426 177.309 82.6637C161.66 91.5135 137.647 97.6 110 97.6C82.3524 97.6 58.3402 91.5135 42.6901 82.6637Z" fill="black"/>
</g>
<defs>
<filter id="filter0_d_2040_11596" x="0" y="0" width="220" height="248" filterUnits="userSpaceOnUse" color-interpolation-filters="sRGB">
<feFlood flood-opacity="0" result="BackgroundImageFix"/>
<feColorMatrix in="SourceAlpha" type="matrix" values="0 0 0 0 0 0 0 0 0 0 0 0 0 0 0 0 0 0 127 0" result="hardAlpha"/>
<feOffset dy="4"/>
<feComposite in2="hardAlpha" operator="out"/>
<feColorMatrix type="matrix" values="0 0 0 0 0.231575 0 0 0 0 0.954948 0 0 0 0 0.781833 0 0 0 1 0"/>
<feBlend mode="normal" in2="BackgroundImageFix" result="effect1_dropShadow_2040_11596"/>
<feBlend mode="normal" in="SourceGraphic" in2="effect1_dropShadow_2040_11596" result="shape"/>
</filter>
</defs>
</svg>
