<svg width="22" height="19" viewBox="0 0 22 19" fill="none" xmlns="http://www.w3.org/2000/svg">
<path d="M3.31109 10.9209L10.2637 17.4521C10.5032 17.6771 10.6229 17.7896 10.7641 17.8173C10.8277 17.8298 10.8931 17.8298 10.9567 17.8173C11.0979 17.7896 11.2176 17.6771 11.4571 17.4521L18.4097 10.9209C20.3659 9.08329 20.6035 6.05929 18.9582 3.93876L18.6489 3.54004C16.6807 1.00328 12.73 1.42871 11.3471 4.32635C11.1517 4.73565 10.5691 4.73565 10.3737 4.32635C8.99078 1.42871 5.04013 1.00328 3.07195 3.54004L2.7626 3.93876C1.11736 6.0593 1.35491 9.08328 3.31109 10.9209Z" stroke="#838383" stroke-width="2"/>
</svg>
